<svg width="24" height="24" viewBox="0 0 24 24" fill="none" xmlns="http://www.w3.org/2000/svg">
<path d="M13.4695 11.9505L20.7595 4.66046C20.9234 4.46916 21.009 4.22308 20.9993 3.9714C20.9895 3.71973 20.8852 3.48099 20.7071 3.30289C20.529 3.1248 20.2903 3.02047 20.0386 3.01075C19.7869 3.00102 19.5408 3.08663 19.3495 3.25046L12.0595 10.5405L4.76954 3.24046C4.57824 3.07663 4.33217 2.99102 4.08049 3.00075C3.82881 3.01047 3.59008 3.1148 3.41198 3.29289C3.23389 3.47099 3.12955 3.70973 3.11983 3.9614C3.11011 4.21308 3.19572 4.45915 3.35954 4.65046L10.6495 11.9505L3.34954 19.2405C3.24486 19.3301 3.15984 19.4404 3.09982 19.5645C3.0398 19.6886 3.00606 19.8237 3.00075 19.9614C2.99543 20.0991 3.01863 20.2365 3.06891 20.3648C3.11918 20.4931 3.19544 20.6097 3.29289 20.7071C3.39035 20.8046 3.5069 20.8808 3.63522 20.9311C3.76355 20.9814 3.90088 21.0046 4.0386 20.9993C4.17632 20.9939 4.31145 20.9602 4.43551 20.9002C4.55958 20.8402 4.6699 20.7551 4.75954 20.6505L12.0595 13.3605L19.3495 20.6505C19.5408 20.8143 19.7869 20.8999 20.0386 20.8902C20.2903 20.8804 20.529 20.7761 20.7071 20.598C20.8852 20.4199 20.9895 20.1812 20.9993 19.9295C21.009 19.6778 20.9234 19.4318 20.7595 19.2405L13.4695 11.9505Z" fill="white"/>
</svg>
