<svg width="220" height="34" viewBox="0 0 220 34" fill="none" xmlns="http://www.w3.org/2000/svg">
<path d="M16.7952 16.9957L28.1636 28.4969C25.9153 30.775 23.0496 32.3272 19.9292 32.9571C16.8087 33.587 13.5736 33.2662 10.6334 32.0355C7.6931 30.8047 5.17978 28.7192 3.41145 26.0429C1.64311 23.3666 0.699219 20.2197 0.699219 17.0006C0.699219 13.7814 1.64311 10.6345 3.41145 7.9582C5.17978 5.28189 7.6931 3.1964 10.6334 1.96563C13.5736 0.734859 16.8087 0.414123 19.9292 1.044C23.0496 1.67389 25.9153 3.22608 28.1636 5.50417L16.7952 16.9957Z" fill="#F7931E"/>
<path d="M31.075 13.2621C30.5719 13.2438 30.0703 13.3283 29.6001 13.5104C29.1299 13.6926 28.7009 13.9688 28.3385 14.3224C27.9762 14.676 27.688 15.0999 27.4912 15.5687C27.2943 16.0375 27.1929 16.5417 27.1929 17.051C27.1929 17.5604 27.2943 18.0645 27.4912 18.5333C27.688 19.0021 27.9762 19.426 28.3385 19.7796C28.7009 20.1333 29.1299 20.4094 29.6001 20.5916C30.0703 20.7738 30.5719 20.8582 31.075 20.8399H44.6146V13.2621H31.075Z" fill="#FF931E"/>
<path d="M31.0747 20.8401C30.2963 20.8422 29.538 21.0905 28.906 21.5501C28.2739 22.0097 27.7997 22.6578 27.5496 23.4035C27.4126 23.7963 27.3439 24.2101 27.3465 24.6266C27.3459 25.124 27.4422 25.6166 27.6301 26.0763C27.818 26.536 28.0936 26.9537 28.4413 27.3054C28.789 27.6572 29.2018 27.936 29.6562 28.1261C30.1106 28.3162 30.5975 28.4137 31.0892 28.413H44.6288V20.8401H31.0747Z" fill="#FF931E"/>
<path d="M31.0747 5.68433C30.2955 5.68607 29.5365 5.93474 28.9042 6.39541C28.2719 6.85608 27.7982 7.50558 27.5496 8.25266C27.413 8.64384 27.3443 9.05594 27.3465 9.47079C27.3452 9.96863 27.4411 10.4618 27.6287 10.9221C27.8163 11.3823 28.0918 11.8006 28.4396 12.1528C28.7873 12.5051 29.2004 12.7844 29.6551 12.9748C30.1097 13.1651 30.5971 13.2628 31.0892 13.2621H44.6287V5.68433H31.0747Z" fill="#FF931E"/>
<path d="M24.0778 16.9947C24.0811 18.6962 23.4999 20.346 22.4337 21.6618C22.2789 21.8526 22.1145 22.0336 21.9501 22.2048L16.7954 16.9947L21.9453 11.7847C22.1145 11.9559 22.2789 12.1369 22.4288 12.3277C23.4968 13.6428 24.0798 15.2927 24.0778 16.9947Z" fill="#111111"/>
<path d="M21.9692 14.495L17.1724 17.2154L21.123 13.2571L21.2391 13.3354C21.5295 13.6894 21.7748 14.079 21.9692 14.495Z" fill="white"/>
<path d="M44.6239 18.389V20.835H31.0844C30.4904 20.8317 29.9058 20.6858 29.3785 20.4093C28.8511 20.1328 28.3962 19.7336 28.0511 19.2445C27.706 18.7555 27.4806 18.1905 27.3934 17.5961C27.3062 17.0018 27.3598 16.3949 27.5496 15.8256C27.8001 16.5749 28.2771 17.2256 28.9132 17.6856C29.5492 18.1456 30.3122 18.3917 31.0941 18.389H44.6239Z" fill="#F15A24"/>
<path d="M44.6234 25.9668V28.4128H31.0839C30.5922 28.4134 30.1052 28.3159 29.6508 28.1259C29.1965 27.9358 28.7836 27.6569 28.4359 27.3052C28.0883 26.9535 27.8126 26.5358 27.6247 26.0761C27.4369 25.6164 27.3405 25.1238 27.3411 24.6263C27.3385 24.2099 27.4072 23.7961 27.5442 23.4033C27.7237 23.956 28.0284 24.4586 28.434 24.8709C28.7816 25.2234 29.1947 25.503 29.6494 25.6936C30.1042 25.8841 30.5916 25.982 31.0839 25.9814L44.6234 25.9668Z" fill="#F15A24"/>
<path d="M44.6233 10.8161V13.2622H31.0838C30.5917 13.2628 30.1043 13.1652 29.6496 12.9748C29.195 12.7844 28.7819 12.5051 28.4342 12.1528C28.0864 11.8006 27.8109 11.3823 27.6233 10.9221C27.4357 10.4618 27.3398 9.96865 27.3411 9.47081C27.3405 9.05568 27.4108 8.64356 27.549 8.25269C27.7285 8.80535 28.0332 9.30793 28.4387 9.72031C28.7864 10.0728 29.1995 10.3524 29.6542 10.5429C30.109 10.7335 30.5964 10.8313 31.0886 10.8308L44.6233 10.8161Z" fill="#F15A24"/>
<path d="M28.1636 28.4962C25.9144 30.7701 23.0494 32.3184 19.9306 32.9456C16.8119 33.5727 13.5794 33.2505 10.6416 32.0197C7.70379 30.7888 5.19256 28.7046 3.42522 26.0303C1.65788 23.3561 0.713758 20.2118 0.712158 16.9949C0.712158 16.853 0.712158 16.7161 0.712158 16.5742C1.41613 18.6829 2.53975 20.6233 4.01368 22.2756C5.4876 23.9279 7.28058 25.2572 9.28196 26.1813C11.2833 27.1055 13.4507 27.6049 15.6503 27.6488C17.8498 27.6927 20.0349 27.2802 22.0708 26.4366L15.301 17.4939L18.6859 14.0695L19.1985 14.588L16.8387 16.9754L24.769 24.9984L28.1636 28.4962Z" fill="#F15A24"/>
<path d="M13.6962 12.4111C15.165 12.4111 16.3557 11.2064 16.3557 9.72043C16.3557 8.23443 15.165 7.02979 13.6962 7.02979C12.2273 7.02979 11.0366 8.23443 11.0366 9.72043C11.0366 11.2064 12.2273 12.4111 13.6962 12.4111Z" fill="#F15A24"/>
<path d="M13.6954 11.6333C15.0975 11.6333 16.2341 10.4834 16.2341 9.06492C16.2341 7.64647 15.0975 6.49658 13.6954 6.49658C12.2933 6.49658 11.1567 7.64647 11.1567 9.06492C11.1567 10.4834 12.2933 11.6333 13.6954 11.6333Z" fill="black"/>
<path d="M31.0751 4.95078H28.6573C26.7001 2.98007 24.2931 1.52769 21.649 0.722123C19.005 -0.083446 16.2054 -0.217379 13.498 0.332169C10.7906 0.881718 8.25884 2.09781 6.12658 3.87288C3.99431 5.64795 2.3273 7.92728 1.273 10.5093C0.218702 13.0913 -0.190394 15.8963 0.0819011 18.6763C0.354196 21.4563 1.29949 24.1256 2.83416 26.448C4.36884 28.7705 6.4456 30.6745 8.88074 31.9917C11.3159 33.3089 14.0344 33.9986 16.7957 33.9999C21.1918 34.0132 25.4151 32.269 28.5461 29.147H45.3497V4.95078H31.0751ZM27.9127 12.6705C28.1325 12.8919 28.3739 13.0902 28.6331 13.2624C28.077 13.6308 27.6089 14.1199 27.2629 14.6941C26.9168 15.2683 26.7015 15.9133 26.6325 16.5822C26.5635 17.2511 26.6426 17.9271 26.864 18.5613C27.0854 19.1954 27.4437 19.7717 27.9127 20.2483C28.1313 20.471 28.3728 20.6695 28.6331 20.8402C27.8001 21.3876 27.1733 22.2027 26.8537 23.1542C26.6879 23.6252 26.6045 24.1218 26.607 24.6218C26.6056 25.1405 26.694 25.6554 26.8682 26.1433L22.434 21.6572L17.8209 16.9902L18.1448 16.6624L21.3605 13.4092L22.434 12.3231L26.9455 7.75883C26.9117 7.8371 26.8827 7.91538 26.8537 7.99854C26.6877 8.46953 26.6043 8.96617 26.607 9.46617C26.604 10.0611 26.7179 10.6508 26.942 11.2009C27.1661 11.751 27.4961 12.2505 27.9127 12.6705ZM16.7909 32.5323C12.9803 32.5259 9.30767 31.0888 6.48462 28.4994C3.66157 25.91 1.88906 22.3526 1.51052 18.5165C1.46217 18.0273 1.43799 17.5087 1.43799 16.9951C1.44311 12.8764 3.06295 8.92794 5.94211 6.01604C8.82127 3.10414 12.7246 1.46661 16.7957 1.46273C20.6181 1.44951 24.3054 2.89207 27.1245 5.50358L16.6652 16.09L15.7706 16.9951L27.1293 28.4866C24.31 31.1014 20.6205 32.5459 16.7957 32.5323H16.7909ZM43.8942 27.6794H31.0751C30.6787 27.68 30.286 27.6015 29.9196 27.4483C29.5533 27.2951 29.2204 27.0703 28.9401 26.7867C28.6598 26.5031 28.4375 26.1663 28.2861 25.7957C28.1347 25.425 28.0571 25.0278 28.0577 24.6267C28.0529 24.5616 28.0529 24.4962 28.0577 24.431C28.0699 24.1605 28.1221 23.8934 28.2125 23.6385C28.4148 23.0357 28.7989 22.5123 29.3107 22.142C29.8225 21.7716 30.4362 21.573 31.0654 21.5741H43.899L43.8942 27.6794ZM43.8942 20.1064H31.0751C30.6783 20.1071 30.2852 20.0284 29.9185 19.8749C29.5518 19.7214 29.2187 19.4962 28.9384 19.212C28.658 18.9279 28.4358 18.5906 28.2847 18.2193C28.1336 17.8481 28.0564 17.4504 28.0577 17.0489C28.0577 16.9853 28.0577 16.9217 28.0577 16.8581C28.0747 16.5866 28.1267 16.3185 28.2125 16.0607C28.4169 15.4583 28.8022 14.9356 29.3146 14.5655C29.8269 14.1954 30.4407 13.9963 31.0703 13.9962H43.899L43.8942 20.1064ZM31.0751 12.5286C30.6783 12.5293 30.2852 12.4506 29.9185 12.2971C29.5518 12.1436 29.2187 11.9183 28.9384 11.6342C28.658 11.3501 28.4358 11.0127 28.2847 10.6415C28.1336 10.2703 28.0564 9.87253 28.0577 9.47106C28.0529 9.40755 28.0529 9.34377 28.0577 9.28027C28.0699 9.00977 28.1221 8.74264 28.2125 8.48775C28.4133 7.88365 28.7969 7.35876 29.3089 6.98738C29.8209 6.61601 30.4354 6.41695 31.0654 6.4184H43.899V12.5286H31.0751Z" fill="#111111"/>
<path d="M27.9128 20.2482C28.1314 20.4709 28.3729 20.6693 28.6333 20.8401C27.8002 21.3875 27.1734 22.2025 26.8538 23.154C26.688 23.6251 26.6046 24.1217 26.6072 24.6217C26.6057 25.1404 26.6941 25.6553 26.8683 26.1431L22.4341 21.6571C23.4977 20.3397 24.0787 18.691 24.0787 16.99C24.0787 15.289 23.4977 13.6403 22.4341 12.323L26.9457 7.75867C26.9118 7.83694 26.8828 7.91521 26.8538 7.99838C26.6879 8.46936 26.6044 8.96601 26.6072 9.466C26.6048 10.0602 26.7189 10.6489 26.943 11.1981C27.1672 11.7473 27.4968 12.246 27.9128 12.6654C28.1326 12.8868 28.374 13.0851 28.6333 13.2574C28.0763 13.6257 27.6075 14.115 27.2609 14.6896C26.9143 15.2643 26.6987 15.9099 26.6296 16.5794C26.5606 17.249 26.64 17.9257 26.862 18.5603C27.0839 19.1949 27.4429 19.7715 27.9128 20.2482Z" fill="white"/>
<path d="M67.9162 16.936C67.9162 26.6859 62.1135 29.1662 55.9966 29.1662H48.8254V4.95044H55.4937C61.8814 4.95044 67.9162 6.94152 67.9162 16.936ZM54.4782 9.10871V25.008H56.3447C59.7635 25.008 62.041 23.3691 62.041 16.936C62.041 10.5029 59.5894 9.10871 56.2722 9.10871H54.4782Z" fill="#111111"/>
<path d="M85.3921 9.04022H76.9637V14.8422H84.3234V18.8586H76.9637V25.0471H85.9772V29.1662H71.3013V4.95044H85.9772L85.3921 9.04022Z" fill="#111111"/>
<path d="M105.117 7.4705L102.501 10.577C101.049 9.28333 99.1842 8.56405 97.2496 8.55165C95.2816 8.55165 94.0388 9.3882 94.0388 10.9292C94.0388 12.4702 94.9383 13.0964 98.6665 14.2803C103.193 15.7479 105.78 17.6362 105.78 22.1076C105.78 26.579 102.259 29.7588 96.2825 29.7588C92.1385 29.7588 89.1694 28.2227 87.1965 26.3001L90.064 23.1203C91.7187 24.6414 93.8727 25.487 96.1085 25.4929C98.4585 25.4929 99.9092 24.3775 99.9092 22.5234C99.9092 20.6693 99.0098 19.9404 95.5234 18.8544C90.1704 17.1764 88.2023 14.9407 88.2023 11.3401C88.2023 7.07914 91.8628 4.35425 96.8338 4.35425C100.489 4.35914 103.009 5.44029 105.117 7.4705Z" fill="#111111"/>
<path d="M114.546 29.1662H108.878V4.95044H114.546V29.1662Z" fill="#111111"/>
<path d="M137.34 7.33398L134.473 10.372C132.853 9.11469 131.538 8.52275 129.603 8.52275C126.252 8.52275 123.767 11.0373 123.767 17.0496C123.767 23.4093 125.426 25.5765 128.743 25.5765C129.879 25.5979 131.001 25.3179 131.997 24.7644V19.2804H128.888L128.337 15.2249H137.49V27.2105C134.915 28.8574 131.935 29.742 128.888 29.7641C121.567 29.7641 117.906 25.327 117.906 17.0447C117.906 8.76246 122.94 4.35959 129.362 4.35959C132.298 4.29071 135.15 5.35403 137.34 7.33398Z" fill="#111111"/>
<path d="M159.724 29.1662H152.505L145.599 10.4051C146.067 13.6798 146.31 16.9834 146.325 20.292V29.1662H141.281V4.95044H148.327L155.406 23.7507C154.913 20.7709 154.659 17.7557 154.647 14.7346V4.95044H159.724V29.1662Z" fill="#111111"/>
<path d="M178.274 9.04022H169.846V14.8422H177.206V18.8586H169.846V25.0471H178.864V29.1662H164.184V4.95044H178.864L178.274 9.04022Z" fill="#111111"/>
<path d="M190.228 19.9104H188.018V29.1662H182.351V4.95044H190.194C196.683 4.95044 200.034 7.29375 200.034 12.3228C200.034 15.5027 198.55 17.4252 195.44 18.8586L201.524 29.1662H195.131L190.228 19.9104ZM188.018 15.9576H190.397C192.887 15.9576 194.198 14.8765 194.198 12.3228C194.198 9.98439 192.853 8.97173 190.054 8.97173H188.018V15.9576Z" fill="#111111"/>
<path d="M219.347 7.47086L216.722 10.5773C215.27 9.28368 213.405 8.56441 211.47 8.552C209.502 8.552 208.259 9.38855 208.259 10.9296C208.259 12.4706 209.154 13.0967 212.887 14.2806C217.413 15.7482 220 17.6366 220 22.1079C220 26.5793 216.48 29.7591 210.503 29.7591C206.359 29.7591 203.385 28.223 201.417 26.3005L204.284 23.1206C205.939 24.6455 208.095 25.493 210.334 25.4982C212.684 25.4982 214.135 24.3828 214.135 22.5287C214.135 20.6746 213.235 19.9456 209.749 18.8596C204.396 17.1816 202.423 14.9459 202.423 11.3454C202.423 7.08438 206.088 4.3595 211.059 4.3595C214.715 4.3595 217.239 5.44065 219.347 7.47086Z" fill="#111111"/>
</svg>
