<svg width="110" height="17" viewBox="0 0 110 17" fill="none" xmlns="http://www.w3.org/2000/svg">
<path d="M8.3976 8.49783L14.0818 14.2485C12.9577 15.3875 11.5248 16.1636 9.96458 16.4785C8.40433 16.7935 6.78681 16.6331 5.31668 16.0177C3.84655 15.4024 2.58989 14.3596 1.70572 13.0215C0.821553 11.6833 0.349609 10.1099 0.349609 8.50028C0.349609 6.89068 0.821553 5.31726 1.70572 3.9791C2.58989 2.64094 3.84655 1.5982 5.31668 0.982815C6.78681 0.36743 8.40433 0.207061 9.96458 0.522002C11.5248 0.836944 12.9577 1.61304 14.0818 2.75208L8.3976 8.49783Z" fill="#F7931E"/>
<path d="M15.5375 6.63111C15.2859 6.62196 15.0351 6.66419 14.8 6.75528C14.565 6.84636 14.3504 6.98444 14.1693 7.16126C13.9881 7.33808 13.844 7.55001 13.7456 7.78442C13.6472 8.01882 13.5964 8.27089 13.5964 8.52557C13.5964 8.78024 13.6472 9.0323 13.7456 9.26671C13.844 9.50111 13.9881 9.71305 14.1693 9.88987C14.3504 10.0667 14.565 10.2048 14.8 10.2959C15.0351 10.3869 15.2859 10.4292 15.5375 10.42H22.3073V6.63111H15.5375Z" fill="#FF931E"/>
<path d="M15.5374 10.4199C15.1482 10.421 14.769 10.5451 14.453 10.7749C14.1369 11.0047 13.8998 11.3288 13.7748 11.7016C13.7063 11.898 13.6719 12.1049 13.6733 12.3132C13.6729 12.5619 13.7211 12.8082 13.8151 13.038C13.909 13.2679 14.0468 13.4767 14.2207 13.6526C14.3945 13.8285 14.6009 13.9679 14.8281 14.0629C15.0553 14.158 15.2988 14.2067 15.5446 14.2064H22.3144V10.4199H15.5374Z" fill="#FF931E"/>
<path d="M15.5373 2.84229C15.1478 2.84316 14.7682 2.96749 14.4521 3.19783C14.136 3.42816 13.8991 3.75291 13.7748 4.12645C13.7065 4.32204 13.6722 4.52809 13.6732 4.73552C13.6726 4.98444 13.7206 5.23103 13.8143 5.46116C13.9081 5.69128 14.0459 5.90041 14.2198 6.07654C14.3936 6.25266 14.6002 6.39232 14.8275 6.48751C15.0549 6.58269 15.2986 6.63152 15.5446 6.6312H22.3144V2.84229H15.5373Z" fill="#FF931E"/>
<path d="M12.0389 8.49737C12.0406 9.3481 11.75 10.173 11.2168 10.8309C11.1395 10.9263 11.0573 11.0168 10.9751 11.1024L8.39771 8.49737L10.9726 5.89233C11.0573 5.97795 11.1395 6.06845 11.2144 6.16384C11.7484 6.82141 12.0399 7.64633 12.0389 8.49737Z" fill="#111111"/>
<path d="M10.9846 7.24761L8.58618 8.60783L10.5615 6.62866L10.6195 6.66781C10.7648 6.84483 10.8874 7.03962 10.9846 7.24761Z" fill="white"/>
<path d="M22.312 9.19456V10.4176H15.5422C15.2452 10.4159 14.9529 10.343 14.6892 10.2047C14.4256 10.0664 14.1981 9.86685 14.0256 9.62232C13.853 9.37779 13.7403 9.09532 13.6967 8.79813C13.6531 8.50094 13.6799 8.19753 13.7748 7.91284C13.9 8.28751 14.1385 8.61286 14.4566 8.84287C14.7746 9.07288 15.1561 9.19591 15.547 9.19456H22.312Z" fill="#F15A24"/>
<path d="M22.3117 12.9834V14.2064H15.5419C15.2961 14.2067 15.0526 14.158 14.8254 14.0629C14.5982 13.9679 14.3918 13.8285 14.218 13.6526C14.0441 13.4767 13.9063 13.2679 13.8124 13.0381C13.7184 12.8082 13.6703 12.5619 13.6706 12.3132C13.6693 12.1049 13.7036 11.898 13.7721 11.7017C13.8619 11.978 14.0142 12.2293 14.217 12.4355C14.3908 12.6117 14.5974 12.7515 14.8247 12.8468C15.0521 12.9421 15.2958 12.991 15.5419 12.9907L22.3117 12.9834Z" fill="#F15A24"/>
<path d="M22.3117 5.40794V6.63096H15.5419C15.2959 6.63129 15.0522 6.58245 14.8248 6.48727C14.5975 6.39209 14.3909 6.25243 14.2171 6.0763C14.0432 5.90018 13.9054 5.69105 13.8116 5.46092C13.7179 5.2308 13.6699 4.9842 13.6705 4.73528C13.6702 4.52772 13.7054 4.32166 13.7745 4.12622C13.8642 4.40255 14.0166 4.65384 14.2194 4.86003C14.3932 5.03628 14.5997 5.17606 14.8271 5.27134C15.0545 5.36663 15.2982 5.41554 15.5443 5.41528L22.3117 5.40794Z" fill="#F15A24"/>
<path d="M14.0818 14.248C12.9572 15.385 11.5247 16.1592 9.96532 16.4727C8.40595 16.7863 6.78969 16.6252 5.32079 16.0098C3.8519 15.3944 2.59628 14.3522 1.71261 13.0151C0.82894 11.678 0.356879 10.1059 0.356079 8.4974C0.356079 8.42646 0.356079 8.35797 0.356079 8.28704C0.708066 9.34138 1.26987 10.3116 2.00684 11.1377C2.7438 11.9639 3.64029 12.6285 4.64098 13.0906C5.64167 13.5527 6.72534 13.8024 7.82513 13.8244C8.92491 13.8463 10.0175 13.64 11.0354 13.2183L7.65051 8.74689L9.34296 7.03467L9.59924 7.29395L8.41937 8.48761L12.3845 12.4991L14.0818 14.248Z" fill="#F15A24"/>
<path d="M6.84808 6.20554C7.5825 6.20554 8.17786 5.60322 8.17786 4.86022C8.17786 4.11721 7.5825 3.51489 6.84808 3.51489C6.11367 3.51489 5.51831 4.11721 5.51831 4.86022C5.51831 5.60322 6.11367 6.20554 6.84808 6.20554Z" fill="#F15A24"/>
<path d="M6.8477 5.81663C7.54873 5.81663 8.11703 5.24169 8.11703 4.53246C8.11703 3.82323 7.54873 3.24829 6.8477 3.24829C6.14667 3.24829 5.57837 3.82323 5.57837 4.53246C5.57837 5.24169 6.14667 5.81663 6.8477 5.81663Z" fill="black"/>
<path d="M15.5376 2.47539H14.3287C13.3501 1.49003 12.1465 0.763846 10.8245 0.361061C9.50249 -0.041723 8.10272 -0.10869 6.74902 0.166084C5.39532 0.440859 4.12942 1.04891 3.06329 1.93644C1.99716 2.82397 1.16365 3.96364 0.636501 5.25463C0.109351 6.54563 -0.0951969 7.94816 0.0409505 9.33816C0.177098 10.7282 0.649744 12.0628 1.41708 13.224C2.18442 14.3852 3.2228 15.3373 4.44037 15.9958C5.65794 16.6544 7.01718 16.9993 8.39786 17C10.5959 17.0066 12.7076 16.1345 14.2731 14.5735H22.6748V2.47539H15.5376ZM13.9563 6.33524C14.0662 6.44593 14.1869 6.54509 14.3166 6.63121C14.0385 6.81541 13.8045 7.05995 13.6314 7.34705C13.4584 7.63416 13.3507 7.95665 13.3162 8.2911C13.2817 8.62555 13.3213 8.96357 13.432 9.28063C13.5427 9.59769 13.7218 9.88584 13.9563 10.1242C14.0656 10.2355 14.1864 10.3347 14.3166 10.4201C13.9 10.6938 13.5866 11.1013 13.4268 11.5771C13.344 11.8126 13.3022 12.0609 13.3035 12.3109C13.3028 12.5702 13.347 12.8277 13.4341 13.0716L11.217 10.8286L8.91043 8.49509L9.07242 8.3312L10.6802 6.70459L11.217 6.16157L13.4728 3.87942C13.4558 3.91855 13.4413 3.95769 13.4268 3.99927C13.3439 4.23476 13.3021 4.48309 13.3035 4.73308C13.302 5.03057 13.3589 5.3254 13.471 5.60044C13.5831 5.87548 13.748 6.12525 13.9563 6.33524ZM8.39544 16.2662C6.49014 16.263 4.65384 15.5444 3.24231 14.2497C1.83079 12.955 0.944532 11.1763 0.755262 9.25825C0.731085 9.01365 0.718996 8.75437 0.718996 8.49753C0.721556 6.43819 1.53148 4.46397 2.97106 3.00802C4.41064 1.55207 6.3623 0.733307 8.39786 0.731365C10.309 0.724755 12.1527 1.44603 13.5622 2.75179L8.33258 8.04502L7.88529 8.49753L13.5646 14.2433C12.155 15.5507 10.3102 16.2729 8.39786 16.2662H8.39544ZM21.9471 13.8397H15.5376C15.3393 13.84 15.143 13.8007 14.9598 13.7242C14.7766 13.6476 14.6102 13.5351 14.47 13.3933C14.3299 13.2516 14.2188 13.0832 14.1431 12.8978C14.0673 12.7125 14.0285 12.5139 14.0289 12.3134C14.0264 12.2808 14.0264 12.2481 14.0289 12.2155C14.035 12.0803 14.0611 11.9467 14.1062 11.8193C14.2074 11.5179 14.3994 11.2562 14.6553 11.071C14.9112 10.8858 15.2181 10.7865 15.5327 10.787H21.9495L21.9471 13.8397ZM21.9471 10.0532H15.5376C15.3391 10.0535 15.1426 10.0142 14.9593 9.93745C14.7759 9.86071 14.6094 9.74808 14.4692 9.60602C14.329 9.46396 14.2179 9.29529 14.1424 9.10967C14.0668 8.92406 14.0282 8.72518 14.0289 8.52444C14.0289 8.49264 14.0289 8.46084 14.0289 8.42905C14.0373 8.2933 14.0633 8.15926 14.1062 8.03034C14.2085 7.72915 14.4011 7.46779 14.6573 7.28273C14.9135 7.09768 15.2204 6.99817 15.5351 6.99811H21.9495L21.9471 10.0532ZM15.5376 6.2643C15.3391 6.26463 15.1426 6.22529 14.9593 6.14854C14.7759 6.0718 14.6094 5.95916 14.4692 5.81711C14.329 5.67505 14.2179 5.50637 14.1424 5.32076C14.0668 5.13515 14.0282 4.93626 14.0289 4.73553C14.0265 4.70378 14.0265 4.67189 14.0289 4.64013C14.035 4.50488 14.0611 4.37132 14.1062 4.24388C14.2067 3.94182 14.3985 3.67938 14.6545 3.49369C14.9105 3.308 15.2177 3.20848 15.5327 3.2092H21.9495V6.2643H15.5376Z" fill="#111111"/>
<path d="M13.9564 10.1241C14.0657 10.2355 14.1865 10.3347 14.3166 10.4201C13.9001 10.6938 13.5867 11.1013 13.4269 11.5771C13.344 11.8126 13.3023 12.0609 13.3036 12.3109C13.3029 12.5702 13.3471 12.8277 13.4341 13.0716L11.217 10.8286C11.7489 10.1699 12.0394 9.34557 12.0394 8.49507C12.0394 7.64458 11.7489 6.82022 11.217 6.16155L13.4728 3.87939C13.4559 3.91853 13.4414 3.95767 13.4269 3.99925C13.3439 4.23474 13.3022 4.48307 13.3036 4.73306C13.3024 5.03014 13.3595 5.3245 13.4715 5.5991C13.5836 5.8737 13.7484 6.12307 13.9564 6.33277C14.0663 6.44347 14.187 6.54263 14.3166 6.62874C14.0381 6.81291 13.8037 7.05755 13.6304 7.34487C13.4571 7.6322 13.3493 7.95499 13.3148 8.28976C13.2803 8.62454 13.32 8.96289 13.431 9.2802C13.542 9.59751 13.7214 9.88581 13.9564 10.1241Z" fill="white"/>
<path d="M33.9581 8.4679C33.9581 13.3429 31.0568 14.583 27.9983 14.583H24.4127V2.4751H27.7468C30.9407 2.4751 33.9581 3.47064 33.9581 8.4679ZM27.2391 4.55423V12.5039H28.1724C29.8817 12.5039 31.0205 11.6844 31.0205 8.4679C31.0205 5.25135 29.7947 4.55423 28.1361 4.55423H27.2391Z" fill="#111111"/>
<path d="M42.696 4.51999H38.4818V7.42099H42.1617V9.42919H38.4818V12.5234H42.9886V14.583H35.6506V2.4751H42.9886L42.696 4.51999Z" fill="#111111"/>
<path d="M52.5585 3.73537L51.2505 5.28861C50.5246 4.64179 49.5921 4.28215 48.6248 4.27595C47.6408 4.27595 47.0194 4.69422 47.0194 5.46472C47.0194 6.23523 47.4691 6.54832 49.3332 7.14026C51.5963 7.87407 52.8898 8.81824 52.8898 11.0539C52.8898 13.2896 51.1296 14.8795 48.1413 14.8795C46.0692 14.8795 44.5847 14.1115 43.5983 13.1502L45.032 11.5603C45.8593 12.3208 46.9363 12.7436 48.0542 12.7466C49.2293 12.7466 49.9546 12.1889 49.9546 11.2618C49.9546 10.3348 49.5049 9.97033 47.7617 9.42731C45.0852 8.58831 44.1012 7.47047 44.1012 5.67019C44.1012 3.53969 45.9314 2.17725 48.4169 2.17725C50.2447 2.17969 51.5044 2.72027 52.5585 3.73537Z" fill="#111111"/>
<path d="M57.2728 14.583H54.4392V2.4751H57.2728V14.583Z" fill="#111111"/>
<path d="M68.6702 3.66699L67.2364 5.18598C66.4265 4.55735 65.7688 4.26138 64.8017 4.26138C63.1262 4.26138 61.8835 5.51864 61.8835 8.52482C61.8835 11.7047 62.7128 12.7883 64.3714 12.7883C64.9395 12.799 65.5005 12.659 65.9985 12.3822V9.64021H64.4439L64.1683 7.61245H68.7451V13.6052C67.4573 14.4287 65.9673 14.871 64.4439 14.8821C60.7834 14.8821 58.9531 12.6635 58.9531 8.52237C58.9531 4.38123 61.47 2.1798 64.6808 2.1798C66.149 2.14536 67.5751 2.67702 68.6702 3.66699Z" fill="#111111"/>
<path d="M79.862 14.583H76.2523L72.7997 5.20243C73.0336 6.83976 73.1548 8.49155 73.1624 10.1459V14.583H70.6406V2.4751H74.1633L77.7029 11.8752C77.4567 10.3853 77.3297 8.87775 77.3233 7.36718V2.4751H79.862V14.583Z" fill="#111111"/>
<path d="M89.1372 4.51999H84.923V7.42099H88.6029V9.42919H84.923V12.5234H89.4322V14.583H82.0918V2.4751H89.4322L89.1372 4.51999Z" fill="#111111"/>
<path d="M95.1138 9.95509H94.0089V14.583H91.1753V2.4751H95.0969C98.3416 2.4751 100.017 3.64675 100.017 6.16128C100.017 7.75121 99.2748 8.7125 97.7202 9.42919L100.762 14.583H97.5655L95.1138 9.95509ZM94.0089 7.97869H95.1985C96.4436 7.97869 97.0988 7.43811 97.0988 6.16128C97.0988 4.99207 96.4267 4.48574 95.0268 4.48574H94.0089V7.97869Z" fill="#111111"/>
<path d="M109.674 3.73537L108.361 5.2886C107.635 4.64178 106.702 4.28214 105.735 4.27594C104.751 4.27594 104.13 4.69421 104.13 5.46472C104.13 6.23522 104.577 6.54831 106.443 7.14025C108.707 7.87406 110 8.81823 110 11.0539C110 13.2896 108.24 14.8795 105.252 14.8795C103.179 14.8795 101.693 14.1115 100.708 13.1502L102.142 11.5602C102.97 12.3227 104.048 12.7464 105.167 12.749C106.342 12.749 107.067 12.1913 107.067 11.2643C107.067 10.3372 106.618 9.97276 104.874 9.42974C102.198 8.59075 101.211 7.47291 101.211 5.67263C101.211 3.54213 103.044 2.17969 105.53 2.17969C107.357 2.17969 108.619 2.72026 109.674 3.73537Z" fill="#111111"/>
</svg>
