<svg width="375" height="162" viewBox="0 0 375 162" fill="none" xmlns="http://www.w3.org/2000/svg">
<path d="M-205 114.117C-188.236 107.167 -137.38 98.5144 -68.0702 119.507C-45.6712 127.025 1.83157 143.45 12.6507 149.01C28.7808 156.339 69.4935 168.102 103.303 156.528C115.278 152.225 143.199 138.287 159.089 116.954C173.952 100.075 203.93 65.2949 204.944 61.2098C217.411 44.5197 250.841 9.77769 284.82 4.33093C303.908 -0.964525 353.411 -3.8392 398.717 27.0257C410.973 33.4559 443.388 44.9263 475 39.3661" stroke="#ABBCF3" stroke-linecap="round"/>
<path d="M-107.797 76.8126C-90.2579 109.72 -35.6973 172.131 42.2343 158.514C57.3079 156.812 92.5264 145.748 112.812 115.11C125.068 94.7793 162.132 54.1178 212.34 54.1178C221.497 53.8341 244.628 54.3448 263.9 58.6568C280.805 62.8648 320.996 68.756 346.523 58.6568C354.2 55.7726 371.88 46.8838 381.178 34.4017L400.83 15.8203" stroke="#6EE2FD" stroke-linecap="round"/>
</svg>
