<svg width="1582" height="569" viewBox="0 0 1582 569" fill="none" xmlns="http://www.w3.org/2000/svg">
<path d="M-29 400.742C10.6667 376.242 131 345.742 295 419.742C348 446.242 460.4 504.142 486 523.742C524.167 549.575 620.5 591.042 700.5 550.242C728.833 535.075 794.9 485.942 832.5 410.742C867.667 351.242 938.6 228.642 941 214.242C970.5 155.408 1049.6 32.9416 1130 13.7416C1175.17 -4.92502 1292.3 -15.0584 1399.5 93.7416C1428.5 116.408 1505.2 156.842 1580 137.242" stroke="#ABBCF3" stroke-width="3" stroke-linecap="round"/>
<path d="M201 269.242C242.5 385.242 371.6 605.242 556 557.242C591.667 551.242 675 512.242 723 404.242C752 332.575 839.7 189.242 958.5 189.242C980.167 188.242 1034.9 190.042 1080.5 205.242C1120.5 220.075 1215.6 240.842 1276 205.242C1294.17 195.075 1336 163.742 1358 119.742L1404.5 54.2417" stroke="#6EE2FD" stroke-width="3" stroke-linecap="round"/>
</svg>
